<svg id="flat" height="512" viewBox="0 0 512 512" width="512" xmlns="http://www.w3.org/2000/svg"><path d="m266.19867 480.311 10.83516-37.92305a17.68677 17.68677 0 0 1 13.55574-12.488 17.6868 17.6868 0 0 1 17.30284 6.34986l24.52495 30.89246a10.60582 10.60582 0 0 0 12.36517 3.20414 10.60581 10.60581 0 0 0 6.47782-11.00916l-4.50251-39.186a17.6868 17.6868 0 0 1 7.74492-16.725 17.68678 17.68678 0 0 1 18.41572-.755l34.48013 19.15562a10.60582 10.60582 0 0 0 12.6501-1.77171 10.60583 10.60583 0 0 0 1.77171-12.6501l-19.15563-34.48012a17.6868 17.6868 0 0 1 .755-18.41572 17.68678 17.68678 0 0 1 16.725-7.74493l39.186 4.50252a10.60584 10.60584 0 0 0 11.00917-6.47783 10.60583 10.60583 0 0 0 -3.20413-12.36518l-30.89247-24.52494a17.6868 17.6868 0 0 1 -6.34985-17.30284 17.68681 17.68681 0 0 1 12.488-13.55575l37.92621-10.83606a10.60582 10.60582 0 0 0 7.69228-10.19791 10.60582 10.60582 0 0 0 -7.69218-10.19776l-37.92621-10.83606a17.68681 17.68681 0 0 1 -12.488-13.55575 17.6868 17.6868 0 0 1 6.34985-17.30284l30.89247-24.52494a10.60583 10.60583 0 0 0 3.20413-12.36518 10.60583 10.60583 0 0 0 -11.00916-6.47783l-39.186 4.50252a17.6868 17.6868 0 0 1 -16.725-7.74492 17.68682 17.68682 0 0 1 -.755-18.41573l19.15563-34.48012a10.60583 10.60583 0 0 0 -1.77171-12.6501 10.60582 10.60582 0 0 0 -12.6501-1.77171l-34.48013 19.15562a17.6868 17.6868 0 0 1 -18.41572-.755 17.68677 17.68677 0 0 1 -7.74492-16.725l4.50251-39.186a10.60581 10.60581 0 0 0 -6.47782-11.00916 10.60582 10.60582 0 0 0 -12.36517 3.20414l-24.52504 30.89236a17.68678 17.68678 0 0 1 -17.30284 6.34986 17.68677 17.68677 0 0 1 -13.55574-12.488l-10.837-37.92935a10.60583 10.60583 0 0 0 -10.19359-7.69218 10.60584 10.60584 0 0 0 -10.20194 7.69218l-10.83515 37.92304a17.68678 17.68678 0 0 1 -13.55574 12.488 17.68679 17.68679 0 0 1 -17.30284-6.34985l-24.525-30.89247a10.60582 10.60582 0 0 0 -12.36514-3.20407 10.60582 10.60582 0 0 0 -6.47782 11.00917l4.50251 39.186a17.6868 17.6868 0 0 1 -7.74492 16.725 17.6868 17.6868 0 0 1 -18.41572.755l-34.48017-19.15566a10.60583 10.60583 0 0 0 -12.6501 1.77171 10.60583 10.60583 0 0 0 -1.77171 12.6501l19.15563 34.48013a17.6868 17.6868 0 0 1 -.755 18.41572 17.6868 17.6868 0 0 1 -16.725 7.74492l-39.186-4.50251a10.60582 10.60582 0 0 0 -11.00915 6.47785 10.60582 10.60582 0 0 0 3.20413 12.36517l30.89247 24.525a17.68679 17.68679 0 0 1 6.34985 17.30284 17.68678 17.68678 0 0 1 -12.488 13.55574l-37.92627 10.83605a10.60583 10.60583 0 0 0 -7.69218 10.19777 10.60583 10.60583 0 0 0 7.69218 10.19776l37.92621 10.83606a17.68678 17.68678 0 0 1 12.488 13.55574 17.68679 17.68679 0 0 1 -6.34985 17.30284l-30.89246 24.52498a10.60582 10.60582 0 0 0 -3.20408 12.36517 10.60582 10.60582 0 0 0 11.00917 6.47782l39.186-4.50251a17.6868 17.6868 0 0 1 16.725 7.74492 17.6868 17.6868 0 0 1 .755 18.41572l-19.15566 34.48017a10.60583 10.60583 0 0 0 1.77171 12.6501 10.60583 10.60583 0 0 0 12.6501 1.77171l34.48013-19.15563a17.6868 17.6868 0 0 1 18.41572.755 17.6868 17.6868 0 0 1 7.74492 16.725l-4.50251 39.186a10.60582 10.60582 0 0 0 6.47782 11.00917 10.60582 10.60582 0 0 0 12.36517-3.20413l24.525-30.89247a17.68679 17.68679 0 0 1 17.30284-6.34985 17.68678 17.68678 0 0 1 13.55574 12.488l10.837 37.92935a10.60585 10.60585 0 0 0 10.19359 7.69219 10.60584 10.60584 0 0 0 10.20193-7.69211z" fill="#4ffa7b"/><g fill="#3cde8d"><path d="m153.14844 247.70117-39.34864-31.23828a18.60595 18.60595 0 0 1 13.69239-33.05615l49.91308 5.73486-1.82617 15.89551-49.9131-5.73486a2.60577 2.60577 0 0 0 -1.918 4.62939l39.34961 31.23828z"/><path d="m125.39062 328.71387a18.6048 18.6048 0 0 1 -11.58984-33.17676l39.34766-31.23828 9.94922 12.53125-39.34866 31.23828a2.60536 2.60536 0 0 0 1.917 4.62939l49.91308-5.73486 1.82617 15.89551-49.91308 5.73486a18.46725 18.46725 0 0 1 -2.10155.12061z"/><path d="m201.84277 405.22412a18.46677 18.46677 0 0 1 -7.07226-1.40332 18.68282 18.68282 0 0 1 -11.36328-19.31445l5.73437-49.91162 15.89453 1.82617-5.73437 49.9126a2.60583 2.60583 0 0 0 4.62988 1.91748l31.23828-39.34815 12.53125 9.94824-31.23828 39.34864a18.68349 18.68349 0 0 1 -14.62012 7.02441z"/><path d="m310.15723 405.22412a18.68008 18.68008 0 0 1 -14.62012-7.02392l-31.23828-39.34913 12.53125-9.94824 31.23828 39.34863a2.606 2.606 0 0 0 4.62988-1.917l-5.73437-49.91357 15.89453-1.82617 5.73437 49.91259a18.6823 18.6823 0 0 1 -11.36328 19.31348 18.4632 18.4632 0 0 1 -7.07226 1.40333z"/><path d="m386.60938 328.71387a18.35513 18.35513 0 0 1 -2.10157-.12061l-49.91308-5.73486 1.82617-15.89551 49.91308 5.73486a2.60577 2.60577 0 0 0 1.918-4.62939l-39.34961-31.23828 9.94922-12.53125 39.34864 31.23828a18.60525 18.60525 0 0 1 -11.59082 33.17676z"/><path d="m358.85156 247.70117-9.94922-12.53125 39.34866-31.23828a2.60536 2.60536 0 0 0 -1.917-4.62939l-49.91308 5.73486-1.82617-15.89551 49.91308-5.73486a18.60553 18.60553 0 0 1 13.69141 33.05615z"/><path d="m322.8584 177.40527-15.89453-1.82617 5.73437-49.9126a2.60583 2.60583 0 0 0 -4.62988-1.91748l-31.23828 39.34815-12.53125-9.94824 31.23828-39.34864a18.60541 18.60541 0 0 1 33.05566 13.69336z"/><path d="m189.1416 177.40527-5.73437-49.91259a18.60555 18.60555 0 0 1 33.05566-13.69288l31.23828 39.34913-12.53125 9.94824-31.23828-39.34863a2.606 2.606 0 0 0 -4.62988 1.917l5.73437 49.91357z"/><path d="m267.73633 218.19775-9.23047-32.30761a2.60652 2.60652 0 0 0 -5.0127.00146l-9.22949 32.30615-15.38476-4.3955 9.23047-32.30762a18.60627 18.60627 0 0 1 35.78027-.00147l9.23144 32.30909z"/><path d="m213.80176 283.12109-32.30762-9.231a18.606 18.606 0 0 1 .001-35.78028l32.30664-9.231 4.39648 15.38476-32.30762 9.231a2.6055 2.6055 0 0 0 -.001 5.01074l32.30859 9.231z"/><path d="m256 344a18.68622 18.68622 0 0 1 -17.88965-13.49316l-9.23144-32.30909 15.38476-4.3955 9.23047 32.30761a2.60652 2.60652 0 0 0 5.0127-.00146l9.22949-32.30615 15.38476 4.3955-9.23047 32.30762a18.68783 18.68783 0 0 1 -17.89062 13.49463z"/><path d="m298.19824 283.12109-4.39648-15.38476 32.30762-9.231a2.6055 2.6055 0 0 0 .001-5.01074l-32.30859-9.231 4.39648-15.38476 32.30762 9.231a18.606 18.606 0 0 1 -.001 35.78028z"/></g></svg>